<?xml version="1.0" encoding="UTF-8"?>
<svg version="1.1" viewBox="0 0 900 900" width="225" height="225" xmlns="http://www.w3.org/2000/svg">
<path transform="translate(428,15)" d="m0 0h40l29 2 29 4 32 7 27 8 20 7 26 11 28 14 23 14 15 10 19 14 13 11 11 9 32 32 7 8 13 16 11 15 14 21 9 15 14 27 8 17 12 31 9 30 7 32 4 26 2 24v59l-3 31-6 32-7 28-12 36-10 23-11 23-12 21-11 17-14 20-18 22-11 12-8 9h-2l-2 4h-2l-1 3-8 7-8 8-14 11-8 7-18 13-22 14-21 12-22 11-24 10-28 10-30 8-36 7-26 3-18 1h-42l-29-2-37-6-36-9-27-9-27-11-23-11-23-13-16-10-17-12-14-11-13-11-8-7-12-11-13-13-7-8-12-14-14-18-12-17-12-19-10-18-8-16-7-15-11-28-8-26-7-28-4-20-4-35-1-15v-41l3-34 4-26 6-27 9-31 9-24 11-25 13-25 12-20 8-12 12-17 13-16 11-13 6-7h2l2-4 12-12h2l1-3 8-7 10-9 14-11 12-9 27-18 21-12 16-8 21-10 26-10 26-8 29-7 23-4 28-3zm-2 133-27 1-30 4-27 6-27 9-16 8-11 6-14 10-13 11-9 9-12 16-9 15-10 21-8 25-4 17-4 28-2 23-1 24v367l1 2h492v-130h-488l4-4 14-10 21-16 12-9 19-14 13-10 19-14 13-10 21-16 7-4h345v-131h-334l-9 1 4-4 18-13 18-14 19-14 21-16 19-14 21-16 19-14 4-2h198l2-1v-127z" fill="#B2121A"/>
</svg>
