<svg xmlns="http://www.w3.org/2000/svg" width="130" height="50" viewBox="0 0 130 50">
    <g fill="none" fill-rule="nonzero">
        <path fill="#A73439" d="M19.822 0C8.878 0 0 8.878 0 19.822c0 10.945 8.878 19.822 19.822 19.822 10.945 0 19.822-8.877 19.822-19.822C39.644 8.878 30.767 0 19.822 0zm11.234 11.878h-9.2l-6.623 4.966h15.823v5.867H15.233l-6.622 4.967h22.445v5.866H8.61V16.744c0-7.31 3.322-10.633 10.922-10.633h11.523v5.767z"/>
        <path fill="#000" d="M46.533 33.544h23.734v-5.866H54.022V22.71h16.256v-5.867H54.022v-4.966h16.256V6.01H46.533v27.533zm41.5-22.233c-5.144 0-7.177 2.445-8.144 3.745h-.1v-3.178h-6.822v21.666H80.1V21.122c0-3.3 2.444-5.01 5.6-5.01 4.533 0 4.633 2.688 4.633 4.277v13.155h7.123V18.556c-.012-4.756-4.134-7.245-9.423-7.245zm20.823-5.3h-7.123v5.867h-3.666v4.066h3.666v13.167c0 2.811 1.123 4.689 7.278 4.689h.911c1.122 0 2.245-.044 3.356-.078V29.4c-.511.044-1.022.078-1.478.078-2.9 0-2.956-.49-2.956-1.756V15.956h4.434v-4.067h-4.434V6.01h.012zm9.3 5.878c-1.134 0-2.056.9-2.056 2.022 0 1.145.911 2.033 2.044 2.033a2.013 2.013 0 0 0 2.034-2.033c0-1.122-.9-2.022-2.022-2.022zm0 3.733c-.923 0-1.656-.755-1.656-1.71 0-.945.744-1.712 1.656-1.712h.01c.912 0 1.656.767 1.656 1.711-.022.956-.755 1.722-1.666 1.711zm.366-1.644v-.022c.245-.078.445-.256.445-.545 0-.211-.078-.367-.211-.467-.134-.1-.367-.166-.712-.166-.277 0-.455.022-.655.055v2.256h.367v-.967h.255c.289 0 .445.111.489.39.044.3.1.5.156.577h.388c-.033-.067-.088-.2-.144-.556-.044-.333-.178-.51-.378-.555zm-.5-.145h-.266v-.766a1.49 1.49 0 0 1 .266-.023c.411 0 .556.2.556.39 0 .3-.256.4-.556.4zM51.367 40c1.577 0 2.31.633 2.644 2.189h1.7c-.333-2.533-1.822-3.667-4.355-3.667-2.9 0-4.778 1.422-4.778 4.878v1.244c0 3.1 1.833 4.823 4.778 4.823 2.544 0 4-1.311 4.344-3.667H54c-.344 1.389-1.044 2.189-2.633 2.189-1.978 0-2.99-1.133-2.99-3.345V43.4c0-2.544 1.045-3.4 2.99-3.4zm7.277 3.222v-1.489h-1.522V49.2H58.8v-3.756c0-1.788.878-2.522 2.422-2.555v-1.411c-1.51.033-2.21.8-2.578 1.744zm6.923-1.744c-2.145 0-3.667 1.055-3.667 3.589v.866c0 2.023 1.378 3.511 3.667 3.511 1.966 0 3.255-1.1 3.577-2.7h-1.688c-.145.956-.812 1.567-1.9 1.567-1.267 0-1.967-.789-1.967-2.122v-.456h5.644l.012-.255v-.422c.01-2.512-1.523-3.578-3.678-3.578zM63.6 44.8c0-1.6.678-2.2 1.967-2.2 1.322 0 1.989.6 1.989 2.2H63.6zm12.256-2.067c-.478-.866-1.356-1.266-2.445-1.255-1.7 0-3.044 1.033-3.044 3.555v.867c0 2.189 1.4 3.544 3.233 3.544 1.078 0 1.956-.466 2.478-1.3l.055 1.067h1.423V38.756h-1.7v3.977zm.01 3.156c0 1.344-.666 2.122-1.888 2.122s-1.9-.778-1.9-2.122v-.867c0-1.678.655-2.2 1.9-2.2 1.244 0 1.889.522 1.889 2.2v.867zm3.423-5.422h1.7v-1.823h-1.7v1.823zm0 8.733h1.7v-7.467h-1.7V49.2zm5.344-9.356h-1.689v1.89h-1.077V42.8h1.077v5c0 1.111.756 1.556 1.756 1.556h1.244v-1.1h-.6c-.544 0-.71-.39-.71-.723V42.8h1.3v-1.067h-1.3v-1.889zm13.778 5.5c0 1.645-.889 2.612-2.511 2.612-1.611 0-2.5-.967-2.5-2.612v-6.6h-1.811v6.6c0 2.356 1.611 4.09 4.311 4.09 2.711 0 4.322-1.734 4.322-4.09v-6.6h-1.81v6.6zm7.533-3.855c-1.1 0-2 .389-2.5 1.255v-1.01h-1.522V49.2h1.69v-4.133c0-1.59.644-2.2 1.866-2.2 1.244 0 1.633.61 1.633 2.2V49.2h1.689v-4.3c0-2.411-1.133-3.411-2.856-3.411zm4.556-1.022h1.689v-1.823H110.5v1.823zm0 8.733h1.689v-7.467H110.5V49.2zm6.533-7.711c-2.144 0-3.666 1.055-3.666 3.589v.866c0 2.023 1.366 3.512 3.666 3.512 2.311 0 3.69-1.49 3.69-3.512v-.866c0-2.534-1.534-3.59-3.69-3.59zm2 4.444c0 1.334-.71 2.123-1.989 2.123-1.266 0-1.966-.79-1.966-2.123v-.866c0-1.667.678-2.2 1.966-2.2 1.323 0 1.99.522 1.99 2.2v.866zm7.245-4.444c-1.1 0-2 .389-2.5 1.255v-1.01h-1.522V49.2h1.688v-4.133c0-1.59.645-2.2 1.867-2.2 1.245 0 1.633.61 1.633 2.2V49.2h1.69v-4.3c0-2.411-1.123-3.411-2.856-3.411z"/>
    </g>
</svg>
